<svg xmlns="http://www.w3.org/2000/svg" x="0" y="0" enable-background="new 0 0 496 496" version="1.1" viewBox="0 0 496 496" xml:space="preserve"><path fill="#F2A800" d="M0 304v65.6C0 396.8 21.6 416 48 416h400c26.4 0 48-19.2 48-46.4V304H0z"/><path fill="#D90012" d="M448 80H48C21.6 80 0 99.2 0 126.4V192h496v-65.6c0-27.2-21.6-46.4-48-46.4z"/><path fill="#0033A0" d="M0 192H496V304H0z"/><path fill="#D67F00" d="M446.4 416c26.4 0 49.6-19.2 49.6-46.4V304H315.2l131.2 112z"/><path fill="#C61010" d="M448 80H48l132 112h316v-65.6c0-27.2-21.6-46.4-48-46.4z"/><path fill="#002F82" d="M315.2 304 496 304 496 192 180 192z"/><path fill="#AF0202" d="M448 80H48l367.2 112H496v-65.6c0-27.2-21.6-46.4-48-46.4z"/><path fill="#022659" d="M496 214.4 496 192 414.4 192z"/><path fill="#C46F00" d="M496 368.8c0 29.6-21.6 47.2-48 47.2H48c-26.4 0-48-20.8-48-48"/></svg>