<svg xmlns="http://www.w3.org/2000/svg" x="0" y="0" enable-background="new 0 0 496 496" version="1.1" viewBox="0 0 496 496" xml:space="preserve"><path fill="#FFF" d="M496 369.6c0 27.2-21.6 48.8-48 48.8H48c-26.4 0-48-21.6-48-48.8V126.4c0-27.2 21.6-48.8 48-48.8h400c26.4 0 48 21.6 48 48.8v243.2z"/><path fill="#E9F3F4" d="M48 77.6h400c26.4 0 48 21.6 48 48.8v243.2c0 27.2-21.6 48.8-48 48.8"/><g fill="#D9ECED"><path d="M496 369.6c0 27.2-21.6 48.8-48 48.8H48c-26.4 0-48-21.6-48-48.8M48 77.6h400c26.4 0 48 21.6 48 48.8v88.8"/></g><path fill="#DA1E37" d="M496 216 280 216 280 77.6 216 77.6 216 216 0 216 0 280 216 280 216 418.4 280 418.4 280 280 496 280z"/><g fill="#C11734"><path d="M216 369.6H280V418.40000000000003H216z"/><path d="M280 77.6 216 77.6 216 216 210.4 216 285.6 280 496 280 496 216 280 216z"/></g><g fill="#DA1E37"><path d="M161.6 144.8H175.2V197.60000000000002H161.6z"/><path d="M141.6 164H194.39999999999998V177.6H141.6z"/><path d="M161.6 298.4H175.2V351.2H161.6z"/><path d="M141.6 318.4H194.39999999999998V332H141.6z"/><path d="M321.6 144.8H335.20000000000005V197.60000000000002H321.6z"/><path d="M301.6 164H354.40000000000003V177.6H301.6z"/><path d="M321.6 298.4H335.20000000000005V351.2H321.6z"/><path d="M301.6 318.4H354.40000000000003V332H301.6z"/></g></svg>