<svg xmlns="http://www.w3.org/2000/svg" x="0" y="0" enable-background="new 0 0 496 496" version="1.1" viewBox="0 0 496 496" xml:space="preserve"><path fill="#ED1C24" d="M0 304.8v64.8c0 27.2 21.6 48.8 48 48.8h400c26.4 0 48-21.6 48-48.8v-64.8H0z"/><path fill="#DD101F" d="M448 418.4c26.4 0 48-21.6 48-48.8v-64.8H315.2L448 418.4z"/><path fill="#ED1C24" d="M448 77.6H48c-26.4 0-48 21.6-48 48.8v64.8h496v-64.8c0-27.2-21.6-48.8-48-48.8z"/><path fill="#DD101F" d="M448 77.6H48l132.8 113.6H496v-64.8c0-27.2-21.6-48.8-48-48.8z"/><path fill="#BC0826" d="M448 77.6H48l370.4 113.6H496v-64.8c0-27.2-21.6-48.8-48-48.8z"/><path fill="#F3F4F5" d="M0 140.8 0 189.6 0 191.2 0 304.8 0 306.4 0 355.2 496 355.2 496 306.4 496 304.8 496 191.2 496 189.6 496 140.8z"/><path fill="#D3DDE5" d="M180 189.6 180 189.6 316 306.4 373.6 355.2 496 355.2 496 306.4 496 304.8 496 191.2 496 189.6 496 140.8 122.4 140.8z"/><path fill="#00A651" d="m245.6 156-3.2 4.8c-1.6 2.4-5.6 7.2-8.8 8.8-3.2 2.4-7.2 5.6-8.8 8l-3.2 3.2 3.2-.8c1.6-.8 4-.8 4.8-1.6s1.6 0 1.6.8c-.8 1.6-5.6 5.6-9.6 7.2-4 1.6-9.6 5.6-10.4 7.2h3.2c2.4-.8 4 0 4.8 1.6 1.6 2.4.8 4-2.4 4-4 0-8.8 4-9.6 6.4s-2.4 4-6.4 5.6c-7.2 3.2-16 8.8-16.8 11.2 0 2.4 5.6 2.4 14.4-.8 1.6-.8 2.4 0 4 3.2 1.6 4 1.6 4-2.4 9.6-3.2 4-5.6 5.6-8 6.4-5.6.8-7.2 2.4-14.4 9.6-3.2 3.2-6.4 6.4-7.2 6.4h-.8c.8.8 4 3.2 6.4 3.2 1.6 0 5.6-1.6 8-4 5.6-4 5.6-4 8-1.6 1.6 1.6 2.4 3.2 2.4 5.6s-1.6 4-8 7.2c-4.8 2.4-11.2 7.2-16 12-6.4 6.4-8 7.2-11.2 7.2H156s.8.8 1.6 2.4c.8.8 3.2 1.6 4.8 1.6 4.8 0 20-5.6 24.8-9.6 4.8-3.2 8.8-4 12-1.6 5.6 3.2-4 9.6-20.8 15.2-6.4 1.6-12 4-12.8 4 0 .8 0 1.6.8 2.4 1.6 2.4 11.2 2.4 18.4 0 3.2-.8 11.2-4 16.8-7.2 11.2-5.6 11.2-5.6 15.2-3.2 9.6 4.8 8.8 13.6-2.4 27.2-4.8 6.4-9.6 8.8-16.8 11.2-3.2.8-8.8 6.4-8.8 8.8v.8h3.2c.8 0 .8-.8 1.6-1.6 2.4-3.2 7.2-5.6 12.8-5.6s12-3.2 17.6-8c4.8-4 8.8-5.6 12-3.2 1.6.8 3.2 1.6 5.6 0 4-1.6 6.4-.8 6.4 2.4 0 1.6 1.6 3.2 3.2 4s4.8 4 7.2 5.6c1.6 1.6 3.2 2.4 3.2 2.4 0-.8-.8-2.4-1.6-4-.8-.8-.8-2.4-.8-3.2h8.8c7.2.8 8 1.6 12 6.4 2.4 2.4 4 4 5.6 4.8h3.2c.8 0 .8-.8.8-.8 0-.8-4.8-4.8-9.6-8.8-11.2-9.6-13.6-13.6-13.6-26.4 0-8 0-10.4 2.4-12 3.2-3.2 4.8-3.2 12 .8 5.6 3.2 7.2 3.2 19.2 2.4 13.6 0 13.6 0 20 4 4 2.4 8 4.8 10.4 6.4 4 3.2 8 3.2 9.6.8.8-3.2-6.4-9.6-21.6-17.6-14.4-8-16-9.6-9.6-13.6 4-2.4 4-1.6 10.4 1.6 4.8 2.4 7.2 3.2 10.4 2.4l4-.8-8.8-7.2c-4.8-4-9.6-8-10.4-9.6-2.4-3.2-7.2-5.6-12-5.6-2.4 0-4.8-.8-4.8-.8-1.6-2.4 2.4-4 14.4-4 15.2-.8 17.6-2.4 7.2-5.6-4-1.6-10.4-3.2-14.4-4s-6.4-1.6-7.2-3.2v-.8s0-.8.8-1.6 4-.8 10.4 0 10.4 1.6 11.2.8c.8-.8-2.4-3.2-8.8-7.2-6.4-3.2-13.6-8.8-17.6-12.8-3.2-3.2-8.8-7.2-11.2-8.8-4-1.6-4.8-3.2-4.8-4 .8-2.4 6.4-2.4 10.4 0 1.6.8 5.6 1.6 8.8 1.6h6.4l-4-1.6c-4-1.6-15.2-9.6-16-11.2.8 0 3.2-.8 6.4 0h6.4l-12-7.2c-6.4-4.8-10.4-7.2-15.2-8-3.2-.8-7.2-1.6-8.8-1.6-4-.8-9.6-7.2-12.8-12.8l-1.6-5.6zm-20.8 35.2c.8 0 .8 0 0 0 1.6 0 2.4 0 2.4.8s-1.6 2.4-3.2 3.2c-.8.8-1.6.8-2.4.8v-2.4c.8-1.6 1.6-2.4 3.2-2.4zm30.4 3.2c1.6 0 3.2.8 3.2 2.4 0 1.6-.8 2.4-3.2 2.4-1.6 0-2.4 0-3.2-.8v-1.6c.8-1.6 1.6-2.4 3.2-2.4zm-8.8.8c1.6 0 2.4.8 2.4 2.4 0 2.4-.8 3.2-4.8 4-2.4.8-4.8.8-5.6.8-1.6-1.6 0-4 3.2-5.6 2.4-1.6 4-1.6 4.8-1.6zm20.8 0c2.4 0 2.4.8 1.6 4 0 .8-1.6 1.6-3.2 1.6-2.4 0-2.4-.8-2.4-2.4 0-2.4 1.6-3.2 3.2-3.2h.8zm-34.4 5.6c3.2 0 1.6 4.8-2.4 7.2-3.2 2.4-6.4 3.2-7.2 2.4-.8-3.2 6.4-8.8 9.6-9.6zm25.6 12c1.6 0 2.4 1.6 1.6 4 0 1.6-1.6 2.4-3.2 2.4h-2.4c0-.8.8-1.6 2.4-4-.8-1.6.8-2.4 1.6-2.4zm-10.4.8c2.4 0 3.2 2.4.8 4-.8.8-2.4.8-2.4.8s-1.6-.8-3.2-.8L240 216l3.2-1.6c1.6 0 4-.8 4.8-.8zm21.6 2.4c1.6 0 2.4 0 4 .8 2.4.8 3.2 1.6 2.4 4.8-.8 3.2-2.4 4-8.8 1.6-3.2-.8-3.2-1.6-2.4-4 .8-1.6 2.4-3.2 4.8-3.2zm-48 .8c4.8 0 5.6.8 3.2 4l-3.2 3.2c-1.6 1.6-2.4.8-3.2-.8-1.6-2.4-1.6-4-.8-4.8 0-.8 1.6-1.6 4-1.6zm-12.8 2.4c2.4 0 3.2.8 4.8 4l2.4 4-3.2 1.6c-3.2.8-4 .8-6.4-2.4-1.6-2.4-2.4-4-1.6-4.8.8-1.6 1.6-2.4 4-2.4zm75.2 12c2.4 0 4.8 1.6 4 4-.8 3.2-4 4-7.2 1.6-1.6-1.6-1.6-1.6-.8-4 1.6-.8 2.4-1.6 4-1.6zm-43.2 5.6c.8 0 .8 0 0 0 .8 0 .8 0 0 0h.8c0 .8.8.8 0 2.4-.8 3.2-2.4 4-4 1.6.8-1.6 1.6-4 3.2-4zm-13.6 3.2c.8 0 2.4.8 4 1.6.8.8 1.6 1.6 1.6 2.4-.8.8-2.4 0-4-.8s-2.4-2.4-2.4-3.2h.8zm22.4 0c.8 0 .8 0 1.6 1.6.8.8 2.4 3.2 2.4 4.8.8 3.2-.8 4.8-4 3.2-3.2-1.6-4-4-2.4-7.2 1.6-1.6 1.6-2.4 2.4-2.4zm8 4.8c.8 0 1.6.8 2.4 3.2v2.4c-1.6 0-2.4-1.6-2.4-4-.8-.8-.8-1.6 0-1.6zm-49.6 4.8h4c1.6 0 2.4.8 3.2 1.6v.8c0 .8-1.6 2.4-4 3.2-2.4.8-5.6 2.4-8 3.2-4 .8-4 .8-5.6-3.2-.8-2.4-1.6-4-1.6-4 0-.8 7.2-1.6 12-1.6zm76.8 11.2c4.8 0 7.2 3.2 2.4 6.4-3.2 2.4-8 2.4-10.4 0-2.4-1.6-1.6-1.6 1.6-4 1.6-1.6 4-2.4 6.4-2.4zm16 4c.8 0 2.4.8 4 1.6 2.4 1.6 2.4 1.6-.8 4.8-1.6 1.6-2.4 3.2-3.2 3.2 0 0-2.4-.8-4-.8-2.4 0-4-1.6-4-2.4 0-2.4 5.6-6.4 8-6.4zm-81.6 4.8c.8 0 .8 0 0 0 4 0 5.6 2.4 5.6 7.2 0 6.4-4 5.6-5.6-.8-1.6-5.6-1.6-6.4 0-6.4zm23.2 1.6c1.6 0 6.4.8 7.2 1.6 0 .8-1.6 2.4-2.4 4l-2.4 3.2-1.6-4.8c-.8-.8-1.6-3.2-.8-4-.8 0-.8 0 0 0-.8 0-.8 0 0 0-.8 0-.8 0 0 0-.8 0-.8 0 0 0zm-11.2 2.4h1.6c1.6 0 2.4 1.6 3.2 2.4v3.2c-.8 0-1.6-.8-2.4-3.2-2.4-.8-3.2-2.4-2.4-2.4z"/><path fill="#007535" d="M318.4 287.2c-14.4-8-16-9.6-9.6-13.6 4-2.4 4-1.6 10.4 1.6 4.8 2.4 7.2 3.2 10.4 2.4l4-.8-8.8-7.2c-4.8-4-9.6-8-10.4-9.6-2.4-3.2-7.2-5.6-12-5.6-2.4 0-4.8-.8-4.8-.8-1.6-2.4 2.4-4 14.4-4 15.2-.8 17.6-2.4 7.2-5.6-4-1.6-10.4-3.2-14.4-4s-6.4-1.6-7.2-3.2v-.8s0-.8.8-1.6 4-.8 10.4 0 10.4 1.6 11.2.8c.8-.8-2.4-3.2-8.8-7.2-6.4-3.2-13.6-8.8-17.6-12.8-3.2-3.2-8.8-7.2-11.2-8.8-4-1.6-4.8-3.2-4.8-4 .8-2.4 6.4-2.4 10.4 0 1.6.8 5.6 1.6 8.8 1.6h6.4l-4-1.6c-4-1.6-15.2-9.6-16-11.2.8 0 3.2-.8 6.4 0h6.4l-12-7.2c-6.4-4.8-10.4-7.2-15.2-8-3.2-.8-7.2-1.6-8.8-1.6-4-.8-9.6-7.2-12.8-12.8l-2.4-4.8-3.2 4.8c-1.6 2.4-5.6 7.2-8.8 8.8-3.2 2.4-7.2 5.6-8.8 8l-3.2 3.2 3.2-.8c1.6-.8 4-.8 4.8-1.6s1.6 0 1.6.8c-.8 1.6-5.6 5.6-9.6 7.2-4 1.6-9.6 5.6-10.4 7.2h3.2c2.4-.8 4 0 4.8 1.6 1.6 2.4.8 4-2.4 4-4 0-8.8 4-9.6 6.4 0 1.6-.8 2.4-2.4 3.2l12.8 11.2c-.8-1.6-.8-3.2-.8-4 .8-.8 1.6-1.6 4-1.6 4.8 0 5.6.8 3.2 4l-3.2 3.2h-.8l18.4 15.2c0-1.6.8-3.2 2.4-3.2h.8c0 .8.8.8 0 2.4 0 1.6-.8 2.4-1.6 2.4l60.8 51.2c11.2 0 12 0 18.4 4 4 2.4 8 4.8 10.4 6.4 4 3.2 8 3.2 9.6.8 2.4 0-5.6-6.4-20-14.4zm-63.2-92.8c1.6 0 3.2.8 3.2 2.4 0 1.6-.8 2.4-3.2 2.4-1.6 0-2.4 0-3.2-.8v-1.6c.8-1.6 1.6-2.4 3.2-2.4zm-30.4-3.2c.8 0 .8 0 0 0 1.6 0 2.4 0 2.4.8s-1.6 2.4-3.2 3.2c-.8.8-1.6.8-2.4.8v-2.4c.8-1.6 1.6-2.4 3.2-2.4zm5.6 17.6c-3.2 2.4-6.4 3.2-7.2 2.4 0-2.4 6.4-8.8 9.6-8.8 2.4-1.6.8 4-2.4 6.4zm7.2-6.4c-1.6-1.6 0-4 3.2-5.6 2.4-1.6 4-1.6 4.8-1.6 1.6 0 2.4.8 2.4 2.4 0 2.4-.8 3.2-4.8 4-2.4.8-4.8.8-5.6.8zm8.8 16s-1.6-.8-3.2-.8L240 216l3.2-1.6c1.6-.8 4-1.6 4.8-1.6 2.4 0 3.2 2.4.8 4-.8.8-2.4 1.6-2.4 1.6zm4 31.2c-3.2-1.6-4-4-2.4-7.2.8-.8.8-1.6 1.6-1.6s.8 0 1.6 1.6c.8.8 2.4 3.2 2.4 4.8.8 2.4-.8 3.2-3.2 2.4zm8.8.8c-1.6 0-3.2-1.6-3.2-4 0-1.6.8-1.6.8-1.6.8 0 1.6.8 2.4 3.2.8 1.6.8 2.4 0 2.4zm.8-33.6c0 1.6-1.6 2.4-3.2 2.4h-2.4c0-.8.8-1.6 2.4-4 .8-1.6 1.6-1.6 2.4-1.6 0-.8.8.8.8 3.2zm20.8 16c.8-.8 1.6-1.6 3.2-1.6 2.4 0 4.8 1.6 4 4-.8 3.2-4 4-7.2 1.6-1.6-1.6-1.6-1.6 0-4zm-18.4-34.4c0-2.4 1.6-3.2 3.2-3.2h.8c2.4 0 2.4.8 1.6 4 0 .8-1.6 1.6-3.2 1.6-2.4 0-2.4 0-2.4-2.4zm4.8 24.8c-3.2-.8-3.2-1.6-2.4-4 .8-2.4 3.2-3.2 5.6-3.2 1.6 0 2.4 0 4 .8 2.4.8 3.2 1.6 2.4 4.8-1.6 3.2-3.2 4-9.6 1.6zm19.2 44c-3.2 2.4-8 2.4-10.4 0-2.4-1.6-1.6-1.6 1.6-4 2.4-1.6 4.8-2.4 6.4-2.4 4.8 0 7.2 3.2 2.4 6.4zm14.4 7.2c-.8 0-2.4-.8-4.8-.8s-4-1.6-4-2.4c0-1.6 5.6-6.4 8-6.4.8 0 2.4.8 3.2 1.6 2.4 1.6 2.4 1.6-.8 4.8 0 1.6-.8 3.2-1.6 3.2z"/></svg>