<svg xmlns="http://www.w3.org/2000/svg" x="0" y="0" enable-background="new 0 0 496 496" version="1.1" viewBox="0 0 496 496" xml:space="preserve"><path fill="#DB2727" d="M496 369.6c0 27.2-21.6 46.4-48 46.4H48c-26.4 0-48-19.2-48-46.4V126.4C0 99.2 21.6 80 48 80h400c26.4 0 48 19.2 48 46.4v243.2z"/><path fill="#CE2420" d="M48 80h400c26.4 0 48 19.2 48 46.4v243.2c0 27.2-25.6 46.4-52 46.4"/><g fill="#B50808"><path d="M48 80h400c26.4 0 48 19.2 48 46.4V216M496 368.8c0 29.6-21.6 47.2-48 47.2H48c-26.4 0-48-20.8-48-48"/></g><path fill="#F3F4F5" d="M77.6 172c0-24.8 20-44 44-44 8 0 16 2.4 22.4 6.4-9.6-9.6-23.2-15.2-37.6-15.2-29.6 0-53.6 24-53.6 53.6s24 53.6 53.6 53.6c14.4 0 28-5.6 37.6-15.2-6.4 4-14.4 6.4-22.4 6.4-24-1.6-44-20.8-44-45.6z"/><path fill="#BAC4CC" d="m95.2 120 12 10.4c4-1.6 10.4-2.4 15.2-2.4 8 0 16 2.4 22.4 6.4-9.6-9.6-23.2-15.2-37.6-15.2-4-.8-8.8 0-12 .8z"/><path fill="#F3F4F5" d="M172.8 143.2 183.2 160.8 204 156 190.4 172 201.6 190.4 181.6 182.4 168 198.4 169.6 176.8 150.4 168.8 171.2 164z"/><path fill="#BAC4CC" d="M183.2 160.8 172.8 143.2 171.2 164 152.8 168.8 156 171.2 169.6 176.8 169.6 183.2 176 188.8 181.6 182.4 201.6 190.4 190.4 172 204 156z"/></svg>